<svg xmlns="http://www.w3.org/2000/svg" viewBox="0 0 1024 1024"><path d="M963.56684656 797.51341913H530.31326333c-25.08131654 0-45.53584974 22.61817268-45.53584973 50.35028935 0 27.72590288 20.45329044 50.34531833 45.53584973 50.34531833h433.25358323c25.07634551 0 45.53584974-22.61817268 45.53584974-50.34531833 0-27.73087391-20.45950422-50.35028935-45.53584974-50.35028935z m0-363.41562542H674.72781039c-25.07634551 0-45.52963596 22.41933161-45.52963596 50.34531832 0 27.72590288 20.45329044 50.33910454 45.52963596 50.33910454H963.56808931c25.07634551 0 45.53584974-22.61320165 45.53584974-50.33910454-0.00124276-27.92598672-20.46074698-50.34531833-45.53709249-50.34531832zM516.08245589 182.37244484h447.48439067c25.07634551 0 45.53584974-22.41933161 45.53584974-50.33910454 0-27.93095775-20.45950422-50.35028935-45.53584974-50.35028935H516.08245589c-25.08131654 0-45.53584974 22.41933161-45.53584974 50.35028935 0.00124276 27.91977294 20.45453319 50.33910454 45.53584974 50.33910454z m31.65301419 240.32181302c17.96404869-19.67532473 17.96404869-51.7309921 0.3591567-71.58900206L321.32383327 97.81279069c-8.88446794-10.02780414-20.80747611-15.14671916-32.54779904-15.14671916-11.56385147 0-23.30293165 4.92007393-32.19361338 14.55019593l-0.18268523 0.19884107s-0.17647146 0-0.17647146 0.19884108l-228.00857922 251.12882563c-17.78633447 19.86795201-17.78633447 51.92486214 0.17647145 71.78784313h0.00497103c17.78136345 19.85800996 47.49070609 19.85800996 65.45351203 0.19387005l148.68838748-163.62010973v602.36294948c0 27.92474397 20.27184796 50.53794562 45.52963595 50.53794562 25.24660319 0 45.52963596-22.61320165 45.52466494-50.53794562V254.34794425L483.35197162 422.29781845c17.7826062 19.8567672 46.60213502 20.05560829 64.38349846 0.39643941z" fill="#006569" ></path></svg>